<?xml version="1.0" encoding="utf-8"?>
<!-- Generator: Adobe Illustrator 27.4.0, SVG Export Plug-In . SVG Version: 6.00 Build 0)  -->
<svg version="1.1" id="Layer_1" xmlns:v="https://vecta.io/nano"
	 xmlns="http://www.w3.org/2000/svg" xmlns:xlink="http://www.w3.org/1999/xlink" x="0px" y="0px" viewBox="0 0 126 42"
	 style="enable-background:new 0 0 126 42;" xml:space="preserve">
<style type="text/css">
	.st0{fill:#182C3A;}
	.st1{fill-rule:evenodd;clip-rule:evenodd;fill:#182C3A;}
	.st2{fill-rule:evenodd;clip-rule:evenodd;fill:#A5BE00;}
</style>
<g>
	<g>
		<path class="st0" d="M57.8,17.2c3.2,0,5.2,2.3,5.2,5s-2,5-5.2,5s-5.2-2.3-5.2-5S54.6,17.2,57.8,17.2L57.8,17.2z M57.8,19
			c-1.9,0-3.2,1.4-3.2,3.3s1.3,3.3,3.2,3.3c1.9,0,3.1-1.4,3.1-3.3S59.7,19,57.8,19z M67.6,27.4c3.3,0,4.1-1.9,4.1-3.1
			c0-3.1-5.1-2.4-5.1-4.3c0-0.7,0.5-1.2,1.8-1.2c0.9,0,1.6,0.2,2.5,0.4l0.3-1.6c-0.8-0.2-1.9-0.4-2.9-0.4c-2.6,0-3.7,1.3-3.7,2.9
			c0,3.2,5,2.5,5,4.4c0,0.7-0.5,1.3-2.2,1.3c-1,0-2-0.3-2.9-0.7l-0.4,1.5C64.9,27.1,66.3,27.4,67.6,27.4L67.6,27.4z M77.1,27.4
			c0.8,0,1.6-0.1,2.1-0.2v-1.7c-0.6,0.1-1,0.2-1.4,0.2c-0.7,0-1.1-0.4-1.1-1.3V19h2.6v-1.6h-2.6v-2.5L74.6,15v2.4h-1.5V19h1.5v5.8
			C74.6,26.5,75.7,27.4,77.1,27.4L77.1,27.4z M85.9,14.9c2.8,0,4.3,1.8,4.3,4.3c0,2.5-1.6,4.3-5.2,4.3h-1.5v3.7h-2.1V14.9H85.9z
			 M85.7,16.8h-2.1v5.1h1.7c2,0,2.9-1.2,2.9-2.6C88.2,17.8,87.3,16.8,85.7,16.8z M96.2,17.2c1.4,0,2.5,0.5,3.4,1.3l0.5-1.1h1.5v9.8
			h-1.4l-0.5-1.1c-0.9,0.8-1.9,1.2-3.4,1.2c-2.9,0-4.9-1.7-4.9-4.9C91.4,19.4,93.3,17.2,96.2,17.2L96.2,17.2z M96.6,19
			c-2,0-3.2,1.4-3.2,3.5s1.2,3.2,3.2,3.2c1.2,0,2.1-0.5,2.8-1.4v-4C98.6,19.4,97.8,19,96.6,19L96.6,19z M109.5,17.2
			c2.7,0,4.7,1.9,4.7,5c0,3.2-2.2,5.1-5,5.1c-1.3,0-2.3-0.4-3.2-1v3.7H104V17.4h1.4l0.5,1.2C106.7,17.8,108,17.2,109.5,17.2z
			 M109,19c-1.2,0-2.2,0.6-2.9,1.2v4.3c0.8,0.8,1.7,1.2,2.8,1.2c2,0,3.2-1.4,3.2-3.3C112.1,20.3,110.8,19,109,19L109,19z
			 M120.7,17.2c1.4,0,2.5,0.5,3.4,1.3l0.5-1.1h1.5v9.8h-1.4l-0.5-1.1c-0.9,0.8-1.9,1.2-3.4,1.2c-2.9,0-4.9-1.7-4.9-4.9
			C115.9,19.4,117.7,17.2,120.7,17.2L120.7,17.2z M121.1,19c-2,0-3.2,1.4-3.2,3.5s1.2,3.2,3.2,3.2c1.2,0,2.1-0.5,2.8-1.4v-4
			C123.1,19.4,122.2,19,121.1,19L121.1,19z M41.9,27.2v-5.3h6.7v5.3h2.1V14.9h-2.1v5.1h-6.7v-5.1h-2.1v12.3H41.9z"/>
		<path class="st1" d="M9,27.3v4.3c0,0.2-0.1,0.3-0.3,0.3H5c-0.2,0-0.3-0.1-0.3-0.3v-4.2C6.1,27.7,7.5,27.6,9,27.3z"/>
		<path class="st1" d="M8.8,10.1c0.2,0,0.3,0.1,0.3,0.3c0,0,0,8.3,0,8.3c-0.4,0.2-1.9,1.2-2.7,1.8c-0.9,0.7-1.6,1.1-1.6,1.1V10.4
			c0-0.2,0.1-0.3,0.3-0.3H8.8L8.8,10.1z"/>
		<path class="st1" d="M20.2,10.1h3.7c0.2,0,0.3,0.1,0.3,0.3v11.1c0,0-0.7-0.4-1.6-1.1c-0.8-0.6-2.3-1.6-2.7-1.8c0-0.1,0-8.3,0-8.3
			C19.9,10.2,20,10.1,20.2,10.1L20.2,10.1z"/>
		<path class="st1" d="M24.2,27.4v4.2c0,0.2-0.1,0.3-0.3,0.3h-3.7c-0.2,0-0.3-0.1-0.3-0.3v-4.3C21.4,27.6,22.8,27.7,24.2,27.4
			L24.2,27.4z"/>
	</g>
	<path class="st2" d="M14.3,24.2c-6.3,3.3-11,3-14.3-0.8c2.5,1,4.5-0.2,6.6-1.6l0.3-0.2l0.4-0.3l0.4-0.3l0.3-0.2
		c1.5-1.1,3.1-2.1,4.7-2.1c1,0,1.7,0.2,2,0.7v0.1c0.3-0.5,1-0.7,2-0.7c1.6,0,3.1,1,4.6,2l0.4,0.3l0.5,0.4l0.3,0.2l0.3,0.2
		c2,1.4,4.1,2.6,6.6,1.6c-3.3,3.9-8.1,4.1-14.4,0.7L14.3,24.2L14.3,24.2z"/>
</g>
</svg>
